<svg xmlns="http://www.w3.org/2000/svg" width="800" height="800" viewBox="0 0 800 800"><g fill="none" stroke="#006CE4" stroke-width="1.2" stroke-opacity="0.25"><path d="M -50 -250 S -25 -275.5025395700317 0 -270.5025395700317 S 25 -276.19375049737965 50 -271.19375049737965 S 75 -271.30727451901254 100 -266.30727451901254 S 125 -262.34955929825185 150 -257.34955929825185 S 175 -251.52947953143783 200 -246.52947953143783 S 225 -241.3779240770689 250 -236.3779240770689 S 275 -234.31542834591323 300 -229.31542834591323 S 325 -232.23742076016342 350 -227.23742076016342 S 375 -236.18386357358253 400 -231.18386357358253 S 425 -246.14668486871383 450 -241.14668486871383 S 475 -261.04653543872496 500 -256.04653543872496 S 525 -278.8835175663864 550 -273.8835175663864 S 575 -297.0388733892625 600 -292.0388733892625 S 625 -312.6805630811633 650 -307.6805630811633 S 675 -323.20901456959365 700 -318.20901456959365 S 725 -326.67272521193394 750 -321.67272521193394 S 775 -322.0878942983214 800 -317.0878942983214 S 825 -309.611163647 850 -304.611163647"/><path d="M -50 -225 S -25 -237.5943505822683 0 -242.5943505822683 S 25 -235.39999223300063 50 -240.39999223300063 S 75 -228.27203968219473 100 -233.27203968219473 S 125 -218.03857515347892 150 -223.03857515347892 S 175 -207.08971486087117 200 -212.08971486087117 S 225 -197.96938625137594 250 -202.96938625137594 S 275 -192.94119263855066 300 -197.94119263855066 S 325 -193.59820153372326 350 -198.59820153372326 S 375 -200.57957168386187 400 -205.57957168386187 S 425 -213.4400274385397 450 -218.4400274385397 S 475 -230.6939682906738 500 -235.6939682906738 S 525 -250.02829376487827 550 -255.02829376487827 S 575 -268.6512091418318 600 -273.6512091418318 S 625 -283.7225963621805 650 -288.7225963621805 S 675 -292.7984183073306 700 -297.7984183073306 S 725 -294.21915377823535 750 -299.21915377823535 S 775 -287.38083516255665 800 -292.38083516255665 S 825 -272.84553767491906 850 -277.84553767491906"/><path d="M -50 -200 S -25 -218.86840734257495 0 -213.86840734257495 S 25 -213.91982518603274 50 -208.91982518603274 S 75 -204.80611640074204 100 -199.80611640074204 S 125 -193.63213004464282 150 -188.63213004464282 S 175 -182.91134479027562 200 -177.91134479027562 S 225 -175.13917161241366 250 -170.13917161241366 S 275 -172.36697677778912 300 -167.36697677778912 S 325 -175.8453535380642 350 -170.8453535380642 S 375 -185.79427221328814 400 -180.79427221328814 S 425 -201.3376889479203 450 -196.3376889479203 S 475 -220.61415940678413 500 -215.61415940678413 S 525 -241.04709802752802 550 -236.04709802752802 S 575 -259.7329565658494 600 -254.7329565658494 S 625 -273.8867789051908 650 -268.8867789051908 S 675 -281.2753011766465 700 -276.2753011766465 S 725 -280.56948265517343 750 -275.56948265517343 S 775 -271.56081264261917 800 -266.56081264261917 S 825 -255.20698487680093 850 -250.20698487680093"/><path d="M -50 -175 S -25 -179.3801162662612 0 -184.3801162662612 S 25 -171.8641278821901 50 -176.8641278821901 S 75 -161.05997865391757 100 -166.05997865391757 S 125 -149.29840050946848 150 -154.29840050946848 S 175 -139.15572139192068 200 -144.15572139192068 S 225 -133.01843818743882 250 -138.01843818743882 S 275 -132.67513825905115 300 -137.67513825905115 S 325 -139.00144415825827 350 -144.00144415825827 S 375 -151.78902453283905 400 -156.78902453283905 S 425 -169.74697219006046 450 -174.74697219006046 S 475 -190.67658806835306 500 -195.67658806835306 S 525 -211.79313358262965 550 -216.79313358262965 S 575 -230.1447652995957 600 -235.1447652995957 S 625 -243.06333718378602 650 -248.06333718378602 S 675 -248.57650578118 700 -253.57650578118 S 725 -245.716440233036 750 -250.716440233036 S 775 -234.67650542585392 800 -239.67650542585392 S 825 -216.7910266128834 850 -221.7910266128834"/><path d="M -50 -150 S -25 -159.2048886359618 0 -154.2048886359618 S 25 -149.35910408090663 50 -144.35910408090663 S 75 -137.19221370215695 100 -132.19221370215695 S 125 -125.2050979541588 150 -120.2050979541588 S 175 -115.97517173718545 200 -110.97517173718545 S 225 -111.72216194098456 250 -106.72216194098456 S 275 -113.92726193121304 300 -108.92726193121304 S 325 -123.06700204116052 350 -118.06700204116052 S 375 -138.50513903375017 400 -133.50513903375017 S 425 -158.56094350794177 450 -153.56094350794177 S 475 -180.7443863435355 500 -175.7443863435355 S 525 -202.12229595041512 550 -197.12229595041512 S 575 -219.75875309720794 600 -214.75875309720794 S 625 -231.16109917705558 650 -226.16109917705558 S 675 -234.66184103379607 700 -229.66184103379607 S 725 -229.67662167144462 750 -224.67662167144462 S 775 -216.7977398316412 800 -211.7977398316412 S 825 -197.70840342393467 850 -192.70840342393467"/><path d="M -50 -125 S -25 -118.43660941094905 0 -123.43660941094905 S 25 -106.54365481365656 50 -111.54365481365656 S 75 -93.36620255566868 100 -98.36620255566868 S 125 -81.51597025960976 150 -86.51597025960976 S 175 -73.50986036200325 200 -78.50986036200325 S 225 -71.34684212749019 250 -76.34684212749019 S 275 -76.16305700011877 300 -81.16305700011877 S 325 -88.02076672575618 350 -93.02076672575618 S 375 -105.86572768309732 400 -110.86572768309732 S 425 -127.66102854852261 450 -132.6610285485226 S 475 -150.67756109779847 500 -155.67756109779847 S 525 -171.89650555741963 550 -176.89650555741963 S 575 -188.46141837258182 600 -193.46141837258182 S 625 -198.10952510894435 650 -203.10952510894435 S 675 -199.51491127131845 700 -204.51491127131845 S 725 -192.48998894447777 750 -197.48998894447777 S 775 -178.01374570009057 800 -183.01374570009057 S 825 -158.08237039047725 850 -163.08237039047725"/><path d="M -50 -100 S -25 -97.18567166989115 0 -92.18567166989115 S 25 -83.56644859706 50 -78.56644859706 S 75 -69.74667959429091 100 -64.74667959429091 S 125 -58.38738321470221 150 -53.38738321470221 S 175 -51.88492006395974 200 -46.88492006395974 S 225 -51.96862134268625 250 -46.96862134268625 S 275 -59.39974963780595 300 -54.39974963780595 S 325 -73.82043633761617 350 -68.82043633761617 S 375 -93.77767605831555 400 -88.77767605831555 S 425 -116.91988576772074 450 -111.91988576772074 S 475 -140.33630540895774 500 -135.33630540895774 S 525 -160.9869263909185 550 -155.9869263909185 S 575 -176.15625240733 600 -171.15625240733 S 625 -183.8602978288438 650 -178.8602978288438 S 675 -183.14343342979373 700 -178.14343342979373 S 725 -174.21886713426744 750 -169.21886713426744 S 775 -158.43099526066334 800 -153.43099526066334 S 825 -138.04572716087316 850 -133.04572716087316"/><path d="M -50 -75 S -25 -55.57661991518432 0 -60.57661991518432 S 25 -40.582754404481804 50 -45.582754404481804 S 75 -26.496247138554438 100 -31.496247138554438 S 125 -15.96505689450418 150 -20.96505689450418 S 175 -11.207913685129302 200 -16.207913685129302 S 225 -13.641860656121768 250 -18.641860656121768 S 275 -23.631983018990788 300 -28.631983018990788 S 325 -40.40389482730419 350 -45.40389482730419 S 375 -62.133991003959395 400 -67.1339910039594 S 425 -86.20449180645362 450 -91.20449180645362 S 475 -109.58432394831199 500 -114.58432394831199 S 525 -129.27699765661515 550 -134.27699765661515 S 575 -142.76599215393006 600 -147.76599215393006 S 625 -148.38843707717893 650 -153.38843707717893 S 675 -145.57903548367278 700 -150.57903548367278 S 725 -134.94646019376586 750 -139.94646019376586 S 775 -118.17067452075665 800 -123.17067452075665 S 825 -97.73765063909059 850 -102.73765063909059"/><path d="M -50 -50 S -25 -33.745454381613335 0 -28.745454381613335 S 25 -17.751107422165013 50 -12.751107422165013 S 75 -3.771921877341299 100 1.228078122658701 S 125 5.61897130916843 150 10.61897130916843 S 175 8.433317856309664 200 13.433317856309664 S 225 3.6017999995806473 250 8.601799999580647 S 275 -8.832225194601005 300 -3.832225194601005 S 325 -27.690889418282616 350 -22.690889418282616 S 375 -50.81646954662162 400 -45.81646954662162 S 425 -75.37936800403159 450 -70.37936800403159 S 475 -98.29209645965365 500 -93.29209645965365 S 525 -116.6652094705727 550 -111.6652094705727 S 575 -128.23446249452863 600 -123.23446249452863 S 625 -131.6929124254216 650 -126.69291242542161 S 675 -126.87654085626578 700 -121.87654085626578 S 725 -114.77492005228463 750 -109.77492005228463 S 775 -97.36584484077862 800 -92.36584484077862 S 825 -77.30040264600237 850 -72.30040264600237"/><path d="M -50 -25 S -25 8.163343759279712 0 3.1633437592797122 S 25 24.770118507330515 50 19.770118507330515 S 75 38.278210555396726 100 33.278210555396726 S 125 46.249090308013244 150 41.249090308013244 S 175 46.97237464364179 200 41.97237464364179 S 225 39.7538768799694 250 34.7538768799694 S 275 25.0483261970749 300 20.0483261970749 S 325 4.414881214295533 350 -0.5851187857044673 S 375 -19.698627427935843 400 -24.698627427935843 S 425 -44.30987405897349 450 -49.30987405897349 S 475 -66.34000474963511 500 -71.34000474963511 S 525 -83.06755923875036 550 -88.06755923875036 S 575 -92.52796589718315 600 -97.52796589718315 S 625 -93.79674079299801 650 -98.79674079299801 S 675 -87.11275490592936 700 -92.11275490592936 S 725 -73.82301282612377 750 -78.82301282612377 S 775 -56.15835918805161 800 -61.15835918805161 S 825 -36.87598755952068 850 -41.87598755952068"/><path d="M -50 0 S -25 30 0 35 S 25 46.82615562833273 50 51.82615562833273 S 75 59.518158880579506 100 64.5181588805795 S 125 65.82850539036393 150 70.82850539036393 S 175 64.36554696401852 200 69.36554696401852 S 225 54.82896491254057 250 59.82896491254057 S 275 38.07836453148537 300 43.07836453148537 S 325 16.02331675852414 350 21.02331675852414 S 375 -8.648819734786212 400 -3.6488197347862124 S 425 -32.86549326252641 450 -27.865493262526407 S 475 -53.62125156800675 500 -48.62125156800675 S 525 -68.41963242896533 550 -63.41963242896533 S 575 -75.63618744155642 600 -70.63618744155642 S 625 -74.74656587532004 650 -69.74656587532004 S 675 -66.38478062765748 700 -61.38478062765748 S 725 -52.22343479996725 750 -47.22343479996725 S 775 -34.69560293454415 800 -29.695602934544148 S 825 -16.60283593904377 850 -11.602835939043771"/><path d="M -50 25 S -25 71.61277568190364 0 66.61277568190364 S 25 88.26922755676497 50 83.26922755676497 S 75 99.82693734840726 100 94.82693734840726 S 125 104.2812223909174 150 99.2812223909174 S 175 100.59256812925847 200 95.59256812925847 S 225 88.8641510684536 250 83.8641510684536 S 275 70.34465290229869 300 65.34465290229869 S 325 47.25515993907926 350 42.25515993907926 S 375 22.46651824737228 400 17.46651824737228 S 425 -0.9230338529031936 450 -5.923033852903194 S 475 -20.04450433867653 500 -25.04450433867653 S 525 -32.67825976306041 550 -37.67825976306041 S 575 -37.57259394083227 600 -42.57259394083227 S 625 -34.61172831184314 650 -39.61172831184314 S 675 -24.807901136185123 700 -29.807901136185123 S 725 -10.119838563701148 750 -15.119838563701148 S 775 6.8728671368225704 800 1.8728671368225704 S 825 23.38741057308807 850 18.38741057308807"/><path d="M -50 50 S -25 92.85136421790722 0 97.85136421790722 S 25 108.96179965883033 50 113.96179965883033 S 75 119.10116032258563 100 124.10116032258563 S 125 121.55358260988118 150 126.55358260988118 S 175 115.65685547188389 200 120.65685547188389 S 225 101.91793345239819 250 106.91793345239819 S 275 81.9498036136696 300 86.9498036136696 S 325 58.23899976485524 350 63.23899976485524 S 375 33.779584559802196 400 38.779584559802196 S 425 11.630327133829006 450 16.630327133829006 S 475 -5.536202800039783 500 -0.5362028000397832 S 525 -15.822712265316458 550 -10.822712265316458 S 575 -18.37431712519174 600 -13.374317125191741 S 625 -13.482846723389727 650 -8.482846723389727 S 675 -2.5130760811604773 700 2.4869239188395227 S 725 12.336363948508819 750 17.33636394850882 S 775 28.39870981016584 800 33.39870981016584 S 825 42.97294018933035 850 47.97294018933035"/><path d="M -50 75 S -25 133.57027815482638 0 128.57027815482638 S 25 148.77962196444741 50 143.77962196444741 S 75 157.2572627891483 100 152.2572627891483 S 125 157.61531510915407 150 152.61531510915407 S 175 149.58523547397147 200 144.58523547397147 S 225 134.06867197198434 250 129.06867197198434 S 275 113.0097100679505 300 108.0097100679505 S 325 89.10810247536469 350 84.10810247536469 S 375 65.41795411669318 400 60.41795411669318 S 425 44.89422764786058 450 39.89422764786058 S 475 29.957522910820447 500 24.957522910820447 S 525 22.144594113912497 550 17.144594113912497 S 575 21.898477677031913 600 16.898477677031913 S 625 28.530059398930344 650 23.530059398930344 S 675 40.355892326928114 700 35.355892326928114 S 725 54.98934990659644 750 49.98934990659644 S 775 69.73813615397032 800 64.73813615397032 S 825 82.0445689201268 850 77.0445689201268"/><path d="M -50 100 S -25 153.63215093566203 0 158.63215093566203 S 25 167.61449657124066 50 172.61449657124066 S 75 174.23329757007238 100 179.23329757007238 S 125 172.46008373039575 150 177.46008373039575 S 175 162.4271604691565 200 167.4271604691565 S 225 145.41260688824838 250 150.41260688824838 S 275 123.65069040964434 300 128.65069040964434 S 325 99.99714315487348 350 104.99714315487348 S 375 77.50142724469607 400 82.50142724469607 S 425 58.95259709763937 450 63.95259709763937 S 475 46.46936850809861 500 51.46936850809861 S 525 41.1979016530646 550 46.1979016530646 S 575 43.16372447827798 600 48.16372447827798 S 625 51.299863807916815 650 56.299863807916815 S 675 63.64546072017906 700 68.64546072017906 S 725 77.68231065371978 750 82.68231065371978 S 775 90.75512100841638 800 95.75512100841638 S 825 100.50823228819311 850 105.50823228819311"/><path d="M -50 125 S -25 192.910878991151 0 187.910878991151 S 25 205.37670753616692 50 200.37670753616692 S 75 209.99026938852106 100 204.99026938852106 S 125 206.10551739961758 150 201.10551739961758 S 175 194.25343566568898 200 189.25343566568898 S 225 176.06149116419368 250 171.06149116419368 S 275 154.0064086956291 300 149.0064086956291 S 325 131.0389131775167 350 126.03891317751668 S 375 110.13905582279054 400 105.13905582279054 S 425 93.87148401137823 450 88.87148401137823 S 475 84.00984121556287 500 79.00984121556287 S 525 81.28842781965025 550 76.28842781965025 S 575 85.31906714341822 600 80.31906714341822 S 625 94.68499422692457 650 89.68499422692457 S 675 107.19564457452644 700 102.19564457452644 S 725 120.26087695221466 750 115.26087695221466 S 775 131.32441723286047 800 126.32441723286045 S 825 138.28711460156256 850 133.28711460156256"/><path d="M -50 150 S -25 211.2945332305117 0 216.2945332305117 S 25 221.99705868465065 50 226.99705868465065 S 75 224.51297619095277 100 229.51297619095277 S 125 218.59272375408463 150 223.59272375408463 S 175 205.15448611756347 200 210.15448611756347 S 225 186.13989110334694 250 191.13989110334694 S 275 164.21464428348514 300 169.21464428348514 S 325 142.36107914163898 350 147.36107914163898 S 375 123.42641562178648 400 128.42641562178648 S 425 109.69728551290369 450 114.69728551290369 S 475 102.5667394045803 500 107.5667394045803 S 525 102.34519059042672 550 107.34519059042672 S 575 108.24391279282483 600 113.24391279282483 S 625 118.53240117734093 650 123.53240117734093 S 675 130.84344364620134 700 135.84344364620134 S 725 142.57646809897287 750 147.57646809897287 S 775 151.33430527956688 800 156.33430527956688 S 825 155.3233678591271 850 160.3233678591271"/><path d="M -50 175 S -25 248.68797403720032 0 243.68797403720032 S 25 257.4284734254192 50 252.4284734254192 S 75 257.81033905203543 100 252.81033905203543 S 125 249.9852975930907 150 244.9852975930907 S 175 235.23820347786574 200 230.23820347786574 S 225 215.78221711315842 250 210.78221711315842 S 275 194.41398345407092 300 189.41398345407092 S 325 174.08306773651324 350 169.08306773651324 S 375 157.44318788286097 400 152.44318788286097 S 425 146.4554202112076 450 141.4554202112076 S 475 142.10513971721932 500 137.10513971721932 S 525 144.27632532510756 550 139.27632532510756 S 575 151.801883550892 600 146.801883550892 S 625 162.680769580428 650 157.680769580428 S 675 174.42631698673222 700 169.42631698673222 S 725 184.48949044911728 750 179.48949044911728 S 775 190.68901674850383 800 185.68901674850383 S 825 191.5793817254794 850 186.5793817254794"/><path d="M -50 200 S -25 265.0151103944754 0 270.0151103944754 S 25 271.6471203495665 50 276.6471203495665 S 75 269.9152133269767 100 274.9152133269767 S 125 260.367846857936 150 265.367846857936 S 175 244.62742167516268 200 249.62742167516268 S 225 225.12955237448662 250 230.12955237448662 S 275 204.7405089372012 300 209.7405089372012 S 325 186.31314808707492 350 191.31314808707492 S 375 172.25110618750776 400 177.25110618750776 S 425 164.14947613160672 450 169.14947613160672 S 475 162.5678937987928 500 167.5678937987928 S 525 166.9708653927849 550 171.9708653927849 S 575 175.84361321979753 600 180.84361321979753 S 625 186.9639024506868 650 191.9639024506868 S 675 197.78563068246595 700 202.78563068246595 S 725 205.87231440053768 750 210.87231440053768 S 775 209.31077804181763 800 214.31077804181763 S 825 207.03857624072552 850 212.03857624072552"/><path d="M -50 225 S -25 300.220751622131 0 295.220751622131 S 25 304.6530388980449 50 299.6530388980449 S 75 300.88368521881785 100 295.88368521881785 S 125 289.8440695374991 150 284.8440695374991 S 175 273.4570788518379 200 268.4570788518379 S 225 254.326351615574 250 249.326351615574 S 275 235.32456295386947 300 230.32456295386947 S 325 219.1457786078874 350 214.1457786078874 S 375 207.89231641430464 400 202.89231641430464 S 425 202.76085462299895 450 197.76085462299895 S 475 203.87662532377144 500 198.87662532377144 S 525 210.30094836878422 550 205.30094836878422 S 575 220.20982777324122 600 215.20982777324122 S 625 231.21420221968086 650 226.21420221968086 S 675 240.7700021856335 700 235.7700021856335 S 725 246.61196399321562 750 241.61196399321562 S 775 247.14142890696934 800 242.14142890696934 S 825 241.70569979493567 850 236.70569979493567"/><path d="M -50 250 S -25 314.27200922433326 0 319.27200922433326 S 25 316.4702504677724 50 321.4702504677724 S 75 310.7938693380534 100 315.7938693380534 S 125 298.53442483496576 150 303.53442483496576 S 175 281.8711298094981 200 286.8711298094981 S 225 263.51708497841054 250 268.51708497841054 S 275 246.28765762682215 300 251.28765762682215 S 325 232.65927936811326 350 237.65927936811326 S 375 224.38818823676627 400 229.38818823676627 S 425 222.24892000063693 450 227.24892000063693 S 475 225.93320675601595 500 230.93320675601595 S 525 234.1244000841478 550 239.1244000841478 S 575 244.73464224125064 600 249.73464224125064 S 625 255.2661731134889 650 260.2661731134889 S 675 263.23846752651446 700 268.23846752651446 S 725 266.61245985092614 750 271.61245985092614 S 775 264.1435803388461 800 269.1435803388461 S 825 255.60662615112005 850 260.60662615112005"/><path d="M -50 275 S -25 347.15921632737667 0 342.15921632737667 S 25 347.1463517447844 50 342.1463517447844 S 75 339.7442338933276 100 334.7442338933276 S 125 326.57345089629155 150 321.57345089629155 S 175 310.0192786667368 200 305.0192786667368 S 225 292.84290306537883 250 287.84290306537883 S 275 277.73960318370666 300 272.73960318370666 S 325 266.913883560789 350 261.913883560789 S 375 261.73860640142925 400 256.73860640142925 S 425 262.5516532783245 450 257.5516532783245 S 475 268.6216844912895 500 263.6216844912895 S 525 278.28764033436045 550 273.28764033436045 S 575 289.2490017365983 600 284.2490017365983 S 625 298.9598676006628 650 293.9598676006628 S 675 305.06340176523634 700 300.06340176523634 S 725 305.7967640904642 750 300.7967640904642 S 775 300.30128678516763 800 295.30128678516763 S 825 288.7876556913932 850 283.7876556913932"/><path d="M -50 300 S -25 358.8963429020548 0 363.8963429020548 S 25 356.7515985478132 50 361.7515985478132 S 75 347.85149061743545 100 352.85149061743545 S 125 334.10678919142174 150 339.10678919142174 S 175 318.05360532693953 200 323.05360532693953 S 225 302.43839864071185 250 307.43839864071185 S 275 289.77591936120956 300 294.77591936120956 S 325 281.9502130491928 350 286.9502130491928 S 375 279.921759166109 400 284.921759166109 S 425 283.58679696442636 450 288.58679696442636 S 475 291.8106109295282 500 296.8106109295282 S 525 302.6288468285698 550 307.6288468285698 S 575 313.5841911639371 600 318.5841911639371 S 625 322.14420123945337 650 327.14420123945337 S 675 326.13312866520886 700 331.13312866520886 S 725 324.1082848669253 750 329.1082848669253 S 775 315.620218630146 800 320.620218630146 S 825 301.314337331613 850 306.314337331613"/><path d="M -50 325 S -25 389.5208961783214 0 384.5208961783214 S 25 385.37749978003376 50 380.37749978003376 S 75 375.2480961683052 100 370.2480961683052 S 125 361.287982081177 150 356.287982081177 S 175 346.12516159195286 200 341.12516159195286 S 225 332.42853814924115 250 327.42853814924115 S 275 322.47558892801675 300 317.47558892801675 S 325 317.78821332483574 350 312.78821332483574 S 375 318.89443001937786 400 313.89443001937786 S 425 325.25346679849986 450 320.25346679849986 S 475 335.3557328433977 500 330.3557328433977 S 525 346.98130814768956 550 341.98130814768956 S 575 357.5753366263275 600 352.5753366263275 S 625 364.6800632533029 650 359.6800632533029 S 675 366.35416262132736 700 361.35416262132736 S 725 361.51190820900746 750 356.51190820900746 S 775 350.1273322701175 800 345.1273322701175 S 825 333.26983844626443 850 328.26983844626443"/><path d="M -50 350 S -25 399.09330711888424 0 404.09330711888424 S 25 393.1349519671992 50 398.1349519671992 S 75 382.07942033456055 100 387.07942033456055 S 125 368.2751150522716 150 373.2751150522716 S 175 354.38061329200326 200 359.38061329200326 S 225 342.92583225698684 250 347.92583225698684 S 275 335.89920442566233 300 340.89920442566233 S 325 334.42657277278204 350 339.42657277278204 S 375 338.5927873971994 400 343.5927873971994 S 425 347.43419573938877 450 352.43419573938877 S 475 359.10297735470596 500 364.10297735470596 S 525 371.1768922100326 550 376.1768922100326 S 575 381.06482173458744 600 386.06482173458744 S 625 386.4431547845362 650 391.4431547845362 S 675 385.65303419606954 700 390.65303419606954 S 725 377.9945355009347 750 382.9945355009347 S 775 363.8700464863545 800 368.8700464863545 S 825 344.7529004221407 850 349.7529004221407"/><path d="M -50 375 S -25 427.69581526664 0 422.69581526664 S 25 420.1519550634296 50 415.1519550634296 S 75 408.50064372761045 100 403.50064372761045 S 125 395.2273784499594 150 390.2273784499594 S 175 382.95900362216844 200 377.95900362216844 S 225 374.0278091041572 250 369.0278091041572 S 275 370.08755025585043 300 365.08755025585043 S 325 371.84264013582765 350 366.84264013582765 S 375 378.93365581810076 400 373.93365581810076 S 425 389.99736571904504 450 384.99736571904504 S 475 402.89167008251076 500 397.89167008251076 S 525 415.0495541125609 550 410.0495541125609 S 575 423.90554392852295 600 418.90554392852295 S 625 427.3264929138121 650 422.3264929138121 S 675 423.97766001822123 700 418.97766001822123 S 725 413.56511614651225 750 408.56511614651225 S 775 396.91494500797006 800 391.91494500797006 S 825 375.8754268848714 850 370.8754268848714"/><path d="M -50 400 S -25 435.4308754619202 0 440.4308754619202 S 25 426.5709595030966 50 431.5709595030966 S 75 414.67345359270917 100 419.67345359270917 S 125 402.3016252080141 150 407.3016252080141 S 175 391.9887100084182 200 396.9887100084182 S 225 385.8148470158488 250 390.8148470158488 S 275 385.06065232297885 300 390.06065232297885 S 325 389.99284274747845 350 394.99284274747845 S 375 399.816240928631 400 404.816240928631 S 425 412.79997386976606 450 417.79997386976606 S 475 426.5579147382036 500 431.5579147382036 S 525 438.4388062837586 550 443.4388062837586 S 575 445.9639394928968 600 450.9639394928968 S 625 447.24252604924993 650 452.24252604924993 S 675 441.2982280707274 700 446.2982280707274 S 725 428.2541763544749 750 433.2541763544749 S 775 409.3460358898478 800 414.3460358898478 S 825 386.7597600040964 850 391.7597600040964"/><path d="M -50 425 S -25 462.4191205888135 0 457.4191205888135 S 25 452.5459026604658 50 447.5459026604658 S 75 440.76261078723303 100 435.76261078723303 S 125 429.6490010325262 150 424.6490010325262 S 175 421.58466233707446 200 416.58466233707446 S 225 418.3484151960821 250 413.3484151960821 S 275 420.817316795065 300 415.817316795065 S 325 428.8135967197872 350 423.8135967197872 S 375 441.1242706323544 400 436.1242706323544 S 425 455.6906723143355 450 450.6906723143355 S 475 469.93805973272526 500 464.93805973272526 S 525 481.19307467178186 550 476.19307467178186 S 575 487.122711114827 600 482.122711114827 S 625 486.12481501536007 650 481.12481501536007 S 675 477.60758030515296 700 472.60758030515296 S 725 462.1128563561448 750 457.1128563561448 S 775 441.26260836526774 800 436.26260836526774 S 825 417.53570739259715 850 412.53570739259715"/><path d="M -50 450 S -25 468.79692441635746 0 473.79692441635746 S 25 458.23899976485524 50 463.23899976485524 S 75 446.93246375711436 100 451.93246375711436 S 125 437.41172174116696 150 442.41172174116696 S 175 431.84588437222476 200 436.84588437222476 S 225 431.6697616223142 250 436.6697616223142 S 275 437.33516841507304 300 442.33516841507304 S 325 448.22268908246656 350 453.22268908246656 S 375 462.72850500078636 400 467.72850500078636 S 425 478.51301435052346 450 483.51301435052346 S 475 492.8721753132164 500 497.8721753132164 S 525 503.1728671815961 550 508.1728671815961 S 575 507.2831984673992 600 512.2831984673992 S 625 503.92924391200927 650 508.92924391200927 S 675 492.9210858252329 700 497.9210858252329 S 725 475.2114794507376 750 480.2114794507376 S 775 452.77673694447003 800 457.77673694447003 S 825 428.33738781163316 850 433.33738781163316"/><path d="M -50 475 S -25 494.71361752808974 0 489.71361752808974 S 25 483.81735975397817 50 478.81735975397817 S 75 473.3434864301784 100 468.3434864301784 S 125 465.7200690333424 150 460.7200690333424 S 175 462.8534127920026 200 457.8534127920026 S 225 465.79907717021564 250 460.79907717021564 S 275 474.5711874286888 300 469.5711874286888 S 325 488.12110112648986 350 483.12110112648986 S 375 504.4895592471191 400 499.4895592471191 S 425 521.1088351048 450 516.1088351048 S 475 535.2074644074354 500 530.2074644074354 S 525 544.2536847118002 550 539.2536847118002 S 575 546.3673402678293 600 541.3673402678293 S 625 540.6347353489989 650 535.6347353489989 S 675 527.2760093270076 700 522.2760093270076 S 725 507.63768682122486 750 502.63768682122486 S 775 484.010490513724 800 479.010490513724 S 825 459.29996805053554 850 454.29996805053554"/><path d="M -50 500 S -25 500.3284170821489 0 505.3284170821489 S 25 489.449500410301 50 494.449500410301 S 75 480.1489163142612 100 485.1489163142612 S 125 474.68967094677345 150 479.68967094677345 S 175 474.6686396636449 200 479.6686396636449 S 225 480.7351541619975 250 485.7351541619975 S 275 492.4627328500816 300 497.4627328500816 S 325 508.3952321508244 350 513.3952321508244 S 375 526.2609768732127 400 531.2609768732127 S 425 543.3216915825456 450 548.3216915825456 S 475 556.8015317324465 500 561.8015317324465 S 525 564.328610833362 550 569.328610833362 S 575 564.319185369008 600 569.319185369008 S 625 556.2434557559747 650 561.2434557559747 S 675 540.7303908110187 700 545.7303908110187 S 725 519.4941818373875 750 524.4941818373875 S 775 495.092910864856 800 500.092910864856 S 825 470.55636586940517 850 475.55636586940517"/><path d="M -50 525 S -25 525.8071375400829 0 520.8071375400829 S 25 515.3018393283827 50 510.3018393283827 S 75 507.49156675322536 100 502.49156675322536 S 125 504.4191267559507 150 499.4191267559507 S 175 507.3321145430583 200 502.3321145430583 S 225 516.4555462901908 250 511.4555462901908 S 275 530.9290287198431 300 525.9290287198431 S 325 548.9194736717386 350 543.9194736717386 S 375 567.8924843390616 400 562.8924843390616 S 425 585.0002855750131 450 580.0002855750131 S 475 597.525438789149 500 592.525438789149 S 525 603.310523271296 550 598.310523271296 S 575 601.1059204965243 600 596.1059204965243 S 625 590.7805078714101 650 585.7805078714101 S 675 573.3614635386235 700 568.3614635386235 S 725 550.8961363429464 750 545.8961363429464 S 775 526.1568303024214 800 521.1568303024214 S 825 502.2339947224384 850 497.2339947224384"/><path d="M -50 550 S -25 531.3187544023031 0 536.3187544023031 S 25 521.5352377561572 50 526.5352377561572 S 75 515.5008833083012 100 520.5008833083012 S 125 514.9880282342903 150 519.9880282342903 S 175 520.862831944441 200 525.862831944441 S 225 532.9172254758562 250 537.9172254758562 S 275 549.8730794685758 300 554.8730794685758 S 325 569.5590761364834 350 574.5590761364834 S 375 589.2333543820987 400 594.2333543820987 S 425 606.0017931306032 450 611.0017931306032 S 475 617.2664770481065 500 622.2664770481065 S 525 621.1338787371637 550 626.1338787371637 S 575 616.7183930139792 600 621.7183930139792 S 625 604.2931189725028 650 609.2931189725028 S 675 585.263647543752 700 590.263647543752 S 725 561.9683190131749 750 566.9683190131749 S 775 537.3356016173427 800 542.3356016173427 S 825 514.4516250969281 850 519.4516250969281"/><path d="M -50 575 S -25 557.0318962818064 0 552.0318962818064 S 25 548.3016731291752 50 543.3016731291752 S 75 544.2903086855488 100 539.2903086855488 S 125 546.4554202112075 150 541.4554202112075 S 175 555.2580189145314 200 550.2580189145314 S 225 570.0577199324456 250 565.0577199324456 S 275 589.1839707231566 300 584.1839707231566 S 325 610.1732434680587 350 605.1732434680587 S 375 630.135802526997 400 625.135802526997 S 425 646.1950262549735 450 641.1950262549735 S 475 655.9305978304507 500 650.9305978304507 S 525 657.7560321274941 550 652.7560321274941 S 575 651.1711183462398 600 646.1711183462398 S 625 636.8493446630517 650 631.8493446630517 S 675 616.5461655013445 700 611.5461655013445 S 725 592.842012097755 750 587.842012097755 S 775 568.7598156999305 800 563.7598156999305 S 825 547.3164347288235 850 542.3164347288235"/><path d="M -50 600 S -25 563.1113422614502 0 568.1113422614502 S 25 555.7411132016455 50 560.7411132016455 S 75 553.9550136476471 100 558.9550136476471 S 125 558.8587334102202 150 563.8587334102202 S 175 570.493426112278 200 575.493426112278 S 225 587.7967067782668 250 592.7967067782668 S 275 608.7395031009797 300 613.7395031009797 S 325 630.61838550699 350 635.61838550699 S 375 650.4583404341229 400 655.4583404341229 S 425 665.4633561280972 450 670.4633561280972 S 475 673.4444449620086 500 678.4444449620086 S 525 673.1580614389292 550 678.1580614389292 S 575 664.5017731612476 600 669.5017731612476 S 625 648.5363188364117 650 653.5363188364117 S 675 627.3303361814615 700 632.3303361814615 S 725 603.6517875910469 750 608.6517875910469 S 775 580.5540823470968 800 585.5540823470968 S 825 560.9213157473964 850 565.9213157473964"/><path d="M -50 625 S -25 589.7146013774445 0 584.7146013774445 S 25 583.9786601373469 50 578.9786601373469 S 75 584.5700430868093 100 579.5700430868093 S 125 592.2132118784265 150 587.2132118784265 S 175 606.5241143933366 200 601.5241143933366 S 225 626.0380222179182 250 621.0380222179182 S 275 648.4090989287874 300 643.4090989287874 S 325 670.7514547286138 350 665.7514547286138 S 375 690.0690105574371 400 685.0690105574371 S 425 703.7073323361232 450 698.7073323361232 S 475 709.756945060003 500 704.756945060003 S 525 707.3450807237614 550 702.3450807237614 S 575 696.7701868491379 600 691.7701868491379 S 625 679.4580905334208 650 674.4580905334208 S 675 657.7466078946798 700 652.7466078946798 S 725 634.5322169923826 750 629.5322169923826 S 775 612.8339483918886 800 607.8339483918886 S 825 595.3425010533613 850 590.3425010533613"/><path d="M -50 650 S -25 596.9886492550186 0 601.9886492550186 S 25 593.1220268591803 50 598.1220268591803 S 75 596.1889170812199 100 601.1889170812199 S 125 606.5118461515028 150 611.5118461515028 S 175 623.2857176864508 200 628.2857176864508 S 225 644.6720428287202 250 649.6720428287202 S 275 668.056915568746 300 673.056915568746 S 325 690.4332915840295 350 695.4332915840295 S 375 708.8484291029393 400 713.8484291029393 S 425 720.8469392957403 450 725.8469392957403 S 475 724.8404201033813 500 729.8404201033813 S 525 720.3460347739185 550 725.3460347739185 S 575 708.0568549865837 600 713.0568549865837 S 625 689.7330975944386 650 694.7330975944386 S 675 667.9314000991499 700 672.9314000991499 S 725 645.6145902626317 750 650.6145902626317 S 775 625.7030241803236 800 630.7030241803236 S 825 610.6375650756746 850 615.6375650756746"/><path d="M -50 675 S -25 625.0668934320497 0 620.0668934320497 S 25 623.2594005044858 50 618.2594005044858 S 75 628.8427165202471 100 623.8427165202471 S 125 641.7258118928428 150 636.7258118928428 S 175 660.6961521778043 200 655.6961521778043 S 225 683.5783830557469 250 678.5783830557469 S 275 707.545094276459 300 702.545094276459 S 325 729.5319024860922 350 724.5319024860922 S 375 746.6925684409873 400 741.6925684409873 S 425 756.8234390496067 450 751.8234390496067 S 475 758.691197521065 500 753.691197521065 S 525 752.2129807230235 550 747.2129807230235 S 575 738.461009084795 600 733.461009084795 S 625 719.4913350548183 650 714.4913350548183 S 675 698.02382556358 700 693.02382556358 S 725 677.0237193180092 750 672.0237193180092 S 775 659.2503847106894 800 654.2503847106894 S 825 646.8438456429088 850 641.8438456429088"/><path d="M -50 700 S -25 634.0664338209448 0 639.0664338209448 S 25 634.4577391615622 50 639.4577391615622 S 75 642.5396719938444 100 647.5396719938444 S 125 657.8054023570884 150 662.8054023570884 S 175 678.657731732216 200 683.657731732216 S 225 702.6288468285699 250 707.6288468285699 S 275 726.7370703612493 300 731.7370703612493 S 325 747.9255958467913 350 752.9255958467913 S 375 763.5152158374734 400 768.5152158374734 S 425 771.600758754556 450 776.600758754556 S 475 771.3297041704109 500 776.3297041704109 S 525 763.0198731374693 550 768.0198731374693 S 575 748.098286754026 600 753.098286754026 S 625 728.8712829741288 650 733.8712829741288 S 675 708.1623680691328 700 713.1623680691328 S 725 688.8748994342224 750 693.8748994342224 S 775 673.5483055399596 800 678.5483055399596 S 825 663.9773242344379 850 668.9773242344379"/><path d="M -50 725 S -25 664.0856781921194 0 659.0856781921194 S 25 666.7615383656932 50 661.7615383656932 S 75 677.2652633436269 100 672.2652633436269 S 125 694.6814319130705 150 689.6814319130705 S 175 717.0596403035369 200 712.0596403035369 S 225 741.6905654263031 250 736.6905654263031 S 275 765.5008689398128 300 760.5008689398128 S 325 785.5059046387847 350 780.5059046387847 S 375 799.2500525025096 400 794.2500525025096 S 425 805.1663912653107 450 800.1663912653107 S 475 802.8000420217744 500 797.8000420217744 S 525 792.860880173824 550 787.860880173824 S 575 777.0980552557052 600 772.0980552557052 S 625 758.0166636706232 650 753.0166636706232 S 675 738.481591529211 700 733.481591529211 S 725 721.2710983082375 750 716.2710983082375 S 775 708.6503859905198 800 703.6503859905198 S 825 702.031991557433 850 697.031991557433"/><path d="M -50 750 S -25 675.202364661127 0 680.202364661127 S 25 680.192093327968 50 685.192093327968 S 75 692.9828258207745 100 697.9828258207745 S 125 712.2670772688482 150 717.2670772688482 S 175 735.7807040272106 200 740.7807040272106 S 225 760.6292494654601 250 765.6292494654601 S 275 783.7123108041526 300 788.7123108041526 S 325 802.1802286336703 350 807.1802286336703 S 375 813.8523053516158 400 818.8523053516158 S 425 817.5317880098677 450 822.5317880098677 S 475 813.169054858158 500 818.169054858158 S 525 801.8482687650483 550 806.8482687650483 S 575 785.6004490578177 600 790.6004490578177 S 625 767.0731020359511 650 772.0731020359511 S 675 749.1089555899213 700 754.1089555899213 S 725 734.3004373231136 750 739.3004373231136 S 775 724.5901034283637 800 729.5901034283637 S 825 720.9797144597909 850 725.9797144597909"/><path d="M -50 775 S -25 707.4720341028168 0 702.4720341028168 S 25 714.7472717929201 50 709.7472717929201 S 75 729.6346474462972 100 724.6346474462972 S 125 750.4601132101122 150 745.4601132101122 S 175 774.6923989269645 200 769.6923989269645 S 225 799.3124802634268 250 794.3124802634268 S 275 821.2580548589577 300 816.2580548589577 S 325 837.8741356583846 350 832.8741356583846 S 375 847.2999333457167 400 842.2999333457167 S 425 848.7322346170528 450 843.7322346170528 S 475 842.524906584395 500 837.524906584395 S 525 830.1099063296855 550 825.1099063296855 S 575 813.753188289127 600 808.753188289127 S 625 796.1847646486161 650 791.1847646486161 S 675 780.1618102646696 700 775.1618102646696 S 725 768.034022900897 750 763.034022900897 S 775 761.3798326285093 800 756.3798326285093 S 825 760.770608882401 850 755.770608882401"/><path d="M -50 800 S -25 720.9269854027879 0 725.9269854027879 S 25 730.4018010199189 50 735.4018010199189 S 75 747.1435311769742 100 752.1435311769742 S 125 769.145490813463 150 774.145490813463 S 175 793.6620248570214 200 798.6620248570214 S 225 817.6129648982768 250 822.6129648982768 S 275 838.0384071794116 300 843.0384071794116 S 325 852.5332687706365 350 857.5332687706365 S 375 859.5943206105882 400 864.5943206105882 S 425 858.8262112399044 450 863.8262112399044 S 475 850.9752025655988 500 855.9752025655988 S 525 837.7864349632389 550 842.7864349632389 S 575 821.7082497631129 600 826.7082497631129 S 625 805.4910537431126 650 810.4910537431126 S 675 791.7446380109667 700 796.7446380109667 S 725 782.5241778597066 750 787.5241778597066 S 775 779.0103537141409 800 784.0103537141409 S 825 781.333912130854 850 786.333912130854"/><path d="M -50 825 S -25 755.5757357131182 0 750.5757357131182 S 25 767.1080609139309 50 762.1080609139309 S 75 785.4147850920896 100 780.4147850920896 S 125 808.1981984267048 150 803.1981984267048 S 175 832.5559725604608 200 827.5559725604608 S 225 855.4116800644439 250 850.4116800644439 S 275 873.9698319175147 300 868.9698319175147 S 325 886.1248150153601 350 881.1248150153601 S 375 890.7604595024651 400 885.7604595024651 S 425 887.8942509634827 450 882.8942509634827 S 475 878.6446955375322 500 873.6446955375322 S 525 865.0281812802277 550 860.0281812802277 S 575 849.6184654068188 600 844.6184654068188 S 625 835.1234307183393 650 830.1234307183393 S 675 823.9466059699998 700 818.9466059699998 S 725 817.8031135935059 750 812.8031135935059 S 775 817.4508610899394 800 812.4508610899394 S 825 822.5793364637091 850 817.5793364637091"/><path d="M -50 850 S -25 771.4029966465334 0 776.4029966465334 S 25 784.7973640508362 50 789.7973640508362 S 75 804.338594264889 100 809.338594264889 S 125 827.486339391381 150 832.486339391381 S 175 851.2430086374654 200 856.2430086374654 S 225 872.6008322961667 250 877.6008322961667 S 275 888.9871059275386 300 893.9871059275386 S 325 898.6385011906227 350 903.6385011906227 S 375 900.8466181387181 400 905.8466181387181 S 425 896.0373208362195 450 901.0373208362195 S 475 885.6726268256522 500 890.6726268256522 S 525 871.9918708679363 550 876.9918708679363 S 575 857.634124412996 600 862.634124412996 S 625 845.202440815524 650 850.202440815524 S 675 836.8394839884331 700 841.8394839884331 S 725 833.8820738716975 750 838.8820738716975 S 775 836.6494744362956 800 841.6494744362956 S 825 844.398875105616 850 849.398875105616"/><path d="M -50 875 S -25 808.3701658724003 0 803.3701658724003 S 25 823.3816925036914 50 818.3816925036914 S 75 843.7927194825838 100 838.7927194825838 S 125 866.8743556599859 150 861.8743556599859 S 175 889.5975028310105 200 884.5975028310105 S 225 909.0865662412597 250 904.0865662412597 S 275 923.0450669403339 300 918.0450669403339 S 325 930.0870926044264 350 925.0870926044264 S 375 929.9234983965729 400 924.9234983965729 S 425 923.3747606703588 450 918.3747606703588 S 475 912.2097616692703 500 907.2097616692703 S 525 898.8372205594685 550 893.8372205594685 S 575 885.8996552036643 600 880.8996552036643 S 625 875.8350059319857 650 870.8350059319857 S 675 870.4759756875517 700 865.4759756875517 S 725 870.7509703364367 750 865.7509703364367 S 775 876.5342414452995 800 871.5342414452995 S 825 886.6690215439619 850 881.6690215439619"/><path d="M -50 900 S -25 826.4163221260515 0 831.4163221260515 S 25 842.7558512219987 50 847.7558512219987 S 75 863.645460720179 100 868.645460720179 S 125 886.226323239638 150 891.226323239638 S 175 907.502523360643 200 912.502523360643 S 225 924.7913583244291 250 929.7913583244291 S 275 936.1199142134618 300 941.1199142134618 S 325 940.5063819068406 350 945.5063819068406 S 375 938.0829017414535 400 943.0829017414535 S 425 930.04182458196 450 935.04182458196 S 475 918.4151841923515 500 923.4151841923515 S 525 905.7234843399457 550 910.7234843399457 S 575 894.5504613555655 600 899.5504613555655 S 625 887.1120463683008 650 892.1120463683008 S 675 884.88850042581 700 889.88850042581 S 725 888.3785185999749 750 893.3785185999749 S 775 897.0146108179149 800 902.0146108179149 S 825 909.2533535880605 850 914.2533535880605"/><path d="M -50 925 S -25 865.459700466378 0 860.459700466378 S 25 882.7999884735351 50 877.7999884735351 S 75 903.7588174188708 100 898.7588174188708 S 125 925.4092438474536 150 920.4092438474536 S 175 944.852729037492 200 939.852729037492 S 225 959.6560402149928 250 954.6560402149928 S 275 968.2100306153421 300 963.2100306153421 S 325 969.9546664859283 350 964.9546664859283 S 375 965.4359312251383 400 960.4359312251383 S 425 956.186879064333 450 951.186879064333 S 475 944.4529228422822 500 939.4529228422822 S 525 932.8060296078678 550 927.8060296078678 S 575 923.7099820374245 600 918.7099820374245 S 625 919.1064847722972 650 914.1064847722972 S 675 920.0884537294991 700 915.0884537294991 S 725 926.7128724642478 750 921.7128724642478 S 775 937.9833433560541 800 932.9833433560541 S 825 952.0054253714749 850 947.0054253714749"/><path d="M -50 950 S -25 885.3996139655252 0 890.3996139655252 S 25 903.3824257344688 50 908.3824257344688 S 75 923.9917733001519 100 928.9917733001519 S 125 944.2962573247469 150 949.2962573247469 S 175 961.5569915078416 200 966.5569915078416 S 225 973.6414048495332 250 978.6414048495332 S 275 979.3363058417146 300 984.3363058417146 S 325 978.5117243651648 350 983.5117243651648 S 375 972.1107683464398 400 977.1107683464398 S 425 961.9683190131749 450 966.9683190131749 S 475 950.4884808146548 500 955.4884808146548 S 525 940.2330197042661 550 945.2330197042661 S 575 933.487042327225 600 938.487042327225 S 625 931.8716768139117 650 936.8716768139117 S 675 936.0659628742271 700 941.0659628742271 S 725 945.6827424567778 750 950.6827424567778 S 775 959.31881901409 800 964.31881901409 S 825 974.7719034479237 850 979.7719034479237"/><path d="M -50 975 S -25 926.1187781272539 0 921.1187781272539 S 25 944.3627325900221 50 939.3627325900221 S 75 964.2036307584574 100 959.2036307584574 S 125 982.7697012233432 150 977.7697012233432 S 175 997.5406870945534 200 992.5406870945534 S 225 1006.7293571683516 250 1001.7293571683516 S 275 1009.5419516704889 300 1004.5419516704889 S 325 1006.2773097776222 350 1001.2773097776222 S 375 998.2500729614837 400 993.2500729614837 S 425 987.5512693763684 450 982.5512693763684 S 475 976.6853480134157 500 971.6853480134157 S 525 968.1422761143053 550 963.1422761143053 S 575 963.9735521321105 600 958.9735521321105 S 625 965.4403033972958 650 960.4403033972958 S 675 972.7901430327653 700 967.7901430327653 S 725 985.1989738560646 750 980.1989738560646 S 775 1000.8876887464409 800 995.8876887464409 S 825 1017.3958775279768 850 1012.3958775279768"/></g></svg>