<svg xmlns="http://www.w3.org/2000/svg" width="800" height="1000" viewBox="0 0 800 1000"><path d="M400,50 C450,50 480,150 500,250 C550,350 600,450 580,550 C550,700 500,850 430,950 C380,950 330,850 310,750 C280,650 250,550 280,450 C300,300 330,150 380,50 Z" fill="none" stroke="#006CE4" stroke-width="2" stroke-opacity="0.1" /><g fill="none" stroke="#006CE4" stroke-width="1.2" stroke-opacity="0.15"><path d="M -50 0 S -25 25 0 30 S 25 39.978731027583265 50 44.978731027583265 S 75 51.32607345606746 100 56.32607345606746 S 125 57.0416318859794 150 62.0416318859794 S 175 55.88414540207516 200 60.88414540207516 S 225 47.580966249071466 250 52.580966249071466 S 275 32.88925985634625 300 37.88925985634625 S 325 13.498540293243412 350 18.498540293243412 S 375 -8.210951406141868 400 -3.210951406141868 S 425 -29.516880572586714 450 -24.516880572586714 S 475 -47.7565049087314 500 -42.7565049087314 S 525 -60.719116473241016 550 -55.719116473241016 S 575 -66.96839581967099 600 -61.96839581967099 S 625 -66.04484882987454 650 -61.04484882987454 S 675 -58.51733573495258 700 -53.51733573495258 S 725 -45.876394825970394 750 -40.876394825970394 S 775 -30.28687507982285 800 -25.28687507982285 S 825 -14.239411731839507 850 -9.239411731839507"/><path d="M -50 30 S -25 60.881576488022546 0 65.88157648802255 S 25 75.69174823284236 50 80.69174823284236 S 75 86.01368273404817 100 91.01368273404817 S 125 90.06350970339587 150 95.06350970339587 S 175 86.91360974918433 200 91.91360974918433 S 225 78.5676830088413 250 83.5676830088413 S 275 64.24786717487815 300 69.24786717487815 S 325 42.461117542850005 350 47.461117542850005 S 375 17.310390760632462 400 22.310390760632462 S 425 -6.261232176098422 450 -1.2612321760984218 S 475 -23.732674169041793 500 -18.732674169041793 S 525 -32.13900583067116 550 -27.13900583067116 S 575 -34.30779919128741 600 -29.30779919128741 S 625 -31.52936734708291 650 -26.52936734708291 S 675 -22.704313941729044 700 -17.704313941729044 S 725 -9.578135781533149 750 -4.578135781533149 S 775 5.55340066352332 800 10.55340066352332 S 825 20.215617817165526 850 25.215617817165526"/><path d="M -50 60 S -25 96.43762676772239 0 101.43762676772239 S 25 110.74471068933698 50 115.74471068933698 S 75 119.78843364801831 100 124.78843364801831 S 125 122.0423493607611 150 127.0423493607611 S 175 122.74688174451853 200 127.74688174451853 S 225 114.78226340842673 250 119.78226340842673 S 275 96.3899000145442 300 101.3899000145442 S 325 70.59613740108301 350 75.59613740108301 S 375 42.23706792714188 400 47.23706792714188 S 425 16.760610507884657 450 21.760610507884657 S 475 -1.158278156050505 500 3.841721843949495 S 525 -8.765951678533128 550 -3.7659516785331277 S 575 -5.800911105152551 600 -0.8009111051525508 S 625 3.8639309148510996 650 8.8639309148511 S 675 13.740396694962119 700 18.74039669496212 S 725 27.026617527985195 750 32.026617527985195 S 775 41.34867972388015 800 46.34867972388015 S 825 54.303904505320126 850 59.303904505320126"/><path d="M -50 90 S -25 131.53876061001012 0 136.53876061001012 S 25 145.02721940544103 50 150.02721940544103 S 75 152.57620327549225 100 157.57620327549225 S 125 160.6020389821091 150 165.6020389821091 S 175 161.11440882718492 200 166.11440882718492 S 225 149.53955015454034 250 154.53955015454034 S 275 127.13302447708264 300 132.13302447708264 S 325 97.71610772577696 350 102.71610772577696 S 375 66.80983034075754 400 71.80983034075754 S 425 40.25622375561455 450 45.25622375561455 S 475 22.731088664067006 500 27.731088664067006 S 525 16.616869313856103 550 21.616869313856103 S 575 21.57373699321239 600 26.57373699321239 S 625 34.88578527818071 650 39.88578527818071 S 675 50.68922515408211 700 55.68922515408211 S 725 63.799502928318304 750 68.7995029283183 S 775 76.97118470690029 800 81.97118470690029 S 825 87.92831747298227 850 92.92831747298227"/><path d="M -50 120 S -25 166.06276147827464 0 171.06276147827464 S 25 178.44309846793183 50 183.44309846793183 S 75 190.60627796950035 100 195.60627796950035 S 125 200.25286071119163 150 205.25286071119163 S 175 197.88386602492267 200 202.88386602492267 S 225 182.6017086173763 250 187.6017086173763 S 275 156.42404171167283 300 161.42404171167283 S 325 123.95574503140716 350 128.95574503140716 S 375 91.32371629979157 400 96.32371629979157 S 425 64.62696640605387 450 69.62696640605387 S 475 48.37170382165878 500 53.37170382165878 S 525 44.40559743587807 550 49.40559743587807 S 575 51.67486566667404 600 56.67486566667404 S 625 66.80587709860923 650 71.80587709860923 S 675 85.24119110435234 700 90.24119110435234 S 725 100.60132536535035 750 105.60132536535035 S 775 112.30008457681231 800 117.30008457681231 S 825 121.00521066961069 850 126.00521066961069"/><path d="M -50 150 S -25 199.89738022101992 0 204.89738022101992 S 25 212.81494545771 50 217.81494545771 S 75 230.59877379734706 100 235.59877379734706 S 125 238.24236407600097 150 243.24236407600097 S 175 232.72507174308072 200 237.72507174308072 S 225 213.80404584388194 250 218.80404584388194 S 275 184.28590038425892 300 189.28590038425892 S 325 149.51603012818595 350 154.51603012818595 S 375 116.11829658254456 400 121.11829658254456 S 425 90.28807762223607 450 95.28807762223607 S 475 76.17844210802193 500 81.17844210802193 S 525 74.94072619073597 550 79.94072619073597 S 575 84.71400405197369 600 89.71400405197369 S 625 101.46627995814532 650 106.46627995814532 S 675 120.31482914702724 700 125.31482914702724 S 725 136.886200847044 750 141.886200847044 S 775 147.2241734743967 800 152.2241734743967 S 825 153.4663157531672 850 158.4663157531672"/><path d="M -50 180 S -25 232.94292406847785 0 237.94292406847785 S 25 252.29105186273694 50 257.29105186273694 S 75 268.97539382773454 100 273.97539382773454 S 125 274.1765176013373 150 279.1765176013373 S 175 265.37835300840885 200 270.37835300840885 S 225 243.06115335154323 250 248.06115335154323 S 275 210.8173043650496 300 215.8173043650496 S 325 174.65757908065433 350 179.65757908065433 S 375 141.56598101336783 400 146.56598101336783 S 425 117.65366318237292 450 122.65366318237292 S 475 106.5284026234514 500 111.5284026234514 S 525 108.49160398216243 550 113.49160398216243 S 575 120.80849236159224 600 125.80849236159224 S 625 138.82594495146247 650 143.82594495146247 S 675 157.4546214501246 700 162.4546214501246 S 725 172.54064532004998 750 177.54064532004998 S 775 181.64431398338388 800 186.64431398338388 S 825 185.26026992764753 850 190.26026992764753"/><path d="M -50 210 S -25 267.14998335818916 0 272.14998335818916 S 25 290.3231501066052 50 295.3231501066052 S 75 305.3144044930108 100 310.3144044930108 S 125 307.72843220707523 150 312.72843220707523 S 175 295.6647313500335 200 300.6647313500335 S 225 270.3705279083764 250 275.3705279083764 S 275 236.18961259531275 300 241.18961259531275 S 325 199.69165327008412 350 204.69165327008412 S 375 168.05873114601619 400 173.05873114601619 S 425 147.12101312450204 450 152.12101312450204 S 475 139.74466108380545 500 144.74466108380545 S 525 145.24176261621395 550 150.24176261621395 S 575 159.97114485990082 600 164.97114485990082 S 625 178.73895040816882 650 183.73895040816882 S 675 196.40362976613403 700 201.40362976613403 S 725 209.20307037945457 750 214.20307037945457 S 775 215.52625969235817 800 220.52625969235817 S 825 216.35374444084795 850 221.35374444084795"/><path d="M -50 240 S -25 304.29564640026996 0 309.29564640026996 S 25 326.49911034819615 50 331.49911034819615 S 75 339.2573890592072 100 344.2573890592072 S 125 338.6527342454224 150 343.6527342454224 S 175 323.49410582939515 200 328.49410582939515 S 225 295.8136035479398 250 300.8136035479398 S 275 260.6410959655798 300 265.6410959655798 S 325 224.96904721062455 350 229.96904721062455 S 375 195.9935764113742 400 200.9935764113742 S 425 179.05465813036858 450 184.05465813036858 S 475 176.0803431211456 500 181.0803431211456 S 525 185.27507377307893 550 190.27507377307893 S 575 202.10161887494186 600 207.10161887494186 S 625 220.95362266611522 650 225.95362266611522 S 675 236.82475266157286 700 241.82475266157286 S 725 246.52646484951796 750 251.52646484951796 S 775 249.2558761323501 800 254.2558761323501 S 825 246.73214855865533 850 251.73214855865533"/><path d="M -50 270 S -25 339.9158717036707 0 344.9158717036707 S 25 360.46442791684456 50 365.46442791684456 S 75 370.52712872630667 100 375.52712872630667 S 125 366.7986079905442 150 371.7986079905442 S 175 348.8713799685145 200 353.8713799685145 S 225 319.5542397100616 250 324.5542397100616 S 275 284.4686862525143 300 289.4686862525143 S 325 250.86714186166543 350 255.86714186166543 S 375 225.75737341337648 400 230.75737341337648 S 425 213.77051612727766 450 218.77051612727766 S 475 215.7029596548721 500 220.7029596548721 S 525 228.5624569128611 550 233.5624569128611 S 575 246.97944100361212 600 251.97944100361212 S 625 265.11453090267395 650 270.11453090267395 S 675 278.31092578783716 700 283.31092578783716 S 725 284.1342849192159 750 289.1342849192159 S 775 282.7001701309598 800 287.7001701309598 S 825 276.3998934908756 850 281.3998934908756"/><path d="M -50 300 S -25 373.6871639500048 0 378.6871639500048 S 25 391.9418055102387 50 396.9418055102387 S 75 398.9444385132929 100 403.9444385132929 S 125 392.1212930662025 150 397.1212930662025 S 175 371.9005927759122 200 376.9005927759122 S 225 341.8348357352335 250 346.8348357352335 S 275 308.01740474552537 300 313.01740474552537 S 325 277.7754289028769 350 282.7754289028769 S 375 257.7112780848348 400 262.7112780848348 S 425 251.52032671823343 450 256.52032671823343 S 475 258.6784536552869 500 263.6784536552869 S 525 274.948471597298 550 279.948471597298 S 575 294.258644742719 600 299.258644742719 S 625 310.7677055772416 650 315.7677055772416 S 675 320.398646964359 700 325.398646964359 S 725 321.6373526234512 750 326.6373526234512 S 775 315.5970739669175 800 320.5970739669175 S 825 305.44865259229516 850 310.44865259229516"/><path d="M -50 330 S -25 405.35347984152713 0 410.35347984152713 S 25 420.74942735333 50 425.74942735333 S 75 424.4432435671994 100 429.4432435671994 S 125 414.6917211286839 150 419.6917211286839 S 175 392.7871737449792 200 397.7871737449792 S 225 362.9703679660043 250 367.9703679660043 S 275 331.6676689622264 300 336.6676689622264 S 325 306.07975925640756 350 311.07975925640756 S 375 292.1754171850543 400 297.1754171850543 S 425 292.4761862340599 450 297.4761862340599 S 475 304.9534456229407 500 309.9534456229407 S 525 324.1366566748629 550 329.1366566748629 S 575 343.46422308722055 600 348.46422308722055 S 625 357.36975321461455 650 362.36975321461455 S 675 362.58504331144707 700 367.58504331144707 S 725 358.65234430260637 750 363.65234430260637 S 775 347.7220464507788 800 352.7220464507788 S 825 333.7699868382389 850 338.7699868382389"/><path d="M -50 360 S -25 434.7437386768786 0 439.7437386768786 S 25 446.81670933964375 50 451.81670933964375 S 75 447.0828221043504 100 452.0828221043504 S 125 434.703651491261 150 439.703651491261 S 175 411.83832029148357 200 416.83832029148357 S 225 383.34071354979085 250 388.34071354979085 S 275 355.82058093393346 300 360.82058093393346 S 325 336.1453324077668 350 341.1453324077668 S 375 329.4142485419263 400 334.4142485419263 S 425 336.7139825860464 450 341.7139825860464 S 475 354.33227935278194 500 359.33227935278194 S 525 375.67217944329906 550 380.67217944329906 S 575 393.99138808923186 600 398.99138808923186 S 625 404.3020577645589 650 409.3020577645589 S 675 404.3487075759476 700 409.3487075759476 S 725 394.82128469720004 750 399.82128469720004 S 775 378.90128345565086 800 383.90128345565086 S 825 361.29242005980007 850 366.29242005980007"/><path d="M -50 390 S -25 461.78629200414616 0 466.78629200414616 S 25 470.1959669061326 50 475.1959669061326 S 75 467.0556140130566 100 472.0556140130566 S 125 452.476990509476 150 457.476990509476 S 175 429.4609411988832 200 434.4609411988832 S 225 403.3814371850455 250 408.3814371850455 S 275 380.88092045355006 300 385.88092045355006 S 325 368.29762934803745 350 373.29762934803745 S 375 369.6230882961419 400 374.6230882961419 S 425 384.1915596211044 450 389.1915596211044 S 475 406.4419877498173 500 411.4419877498173 S 525 428.92114711097634 550 433.92114711097634 S 575 445.11038020222804 600 450.11038020222804 S 625 450.8918778889889 650 455.8918778889889 S 675 445.1743731210511 700 450.1743731210511 S 725 429.8311951600704 750 434.8311951600704 S 775 409.02251082653584 800 414.02251082653584 S 825 388.0699169006981 850 393.0699169006981"/><path d="M -50 420 S -25 486.51883414435935 0 491.51883414435935 S 25 491.06815988758655 50 496.06815988758655 S 75 484.68840344022067 100 489.68840344022067 S 125 468.45492887697816 150 473.45492887697816 S 175 446.1552708029299 200 451.1552708029299 S 225 423.5722552691437 250 428.5722552691437 S 275 407.23641184103195 300 412.23641184103195 S 325 402.79756229050065 350 407.79756229050065 S 375 412.9162583610747 400 417.9162583610747 S 425 434.7075787960799 450 439.7075787960799 S 475 460.6735029954425 500 465.6735029954425 S 525 483.0502416979875 550 488.0502416979875 S 575 495.98252731601656 600 500.98252731601656 S 625 496.4424959857129 650 501.4424959857129 S 675 484.5810073089907 700 489.5810073089907 S 725 463.4326926545082 750 468.4326926545082 S 775 438.04239260319144 800 443.04239260319144 S 825 414.21382491597797 850 419.21382491597797"/><path d="M -50 450 S -25 509.0922729058897 0 514.0922729058897 S 25 509.74083343910945 50 514.7408334391095 S 75 500.4343304792436 100 505.4343304792436 S 125 483.1914350670601 150 488.1914350670601 S 175 462.5000540001653 200 467.5000540001653 S 225 444.41976705765626 250 449.41976705765626 S 275 435.2288745018615 300 440.2288745018615 S 325 439.7954002856576 350 444.7954002856576 S 375 459.31726891678994 400 464.31726891678994 S 425 487.79101890978325 450 492.79101890978325 S 475 516.0898561100743 500 521.0898561100743 S 525 537.0222656774375 550 542.0222656774375 S 575 545.6964474549821 600 550.6964474549821 S 625 540.2738690462832 650 545.2738690462832 S 675 522.1519468242252 700 527.1519468242252 S 725 495.4559619679837 750 500.4559619679837 S 775 465.9896588357496 800 470.9896588357496 S 825 439.8864468992337 850 444.8864468992337"/><path d="M -50 480 S -25 529.7673935367451 0 534.7673935367451 S 25 526.6367970048555 50 531.6367970048555 S 75 514.8535639076493 100 519.8535639076493 S 125 497.3254547394653 150 502.3254547394653 S 175 479.1233198066013 200 484.1233198066013 S 225 466.4268059115408 250 471.4268059115408 S 275 465.10818229266215 300 470.10818229266215 S 325 479.2036924495088 350 484.2036924495088 S 375 508.7513999277518 400 513.7513999277518 S 425 542.3610220144697 450 547.3610220144697 S 475 571.3405984547989 500 576.3405984547989 S 525 589.6424608518112 550 594.6424608518112 S 575 593.3329481086487 600 598.3329481086487 S 625 581.7725417233279 650 586.7725417233279 S 675 557.5643430632692 700 562.5643430632692 S 725 525.8222675084668 750 530.8222675084668 S 775 492.96328741582147 800 497.96328741582147 S 825 465.29074387162785 850 470.29074387162785"/><path d="M -50 510 S -25 548.9037862733287 0 553.9037862733287 S 25 542.2731101691843 50 547.2731101691843 S 75 528.5820240834466 100 533.5820240834466 S 125 511.5402336352166 150 516.5402336352166 S 175 496.6545263528479 200 501.6545263528479 S 225 490.0402506359345 250 495.0402506359345 S 275 496.9651042337201 300 501.9651042337201 S 325 520.4076402714392 350 525.4076402714392 S 375 559.1887480861621 400 564.1887480861621 S 425 596.154373276787 450 601.154373276787 S 475 624.7634447730384 500 629.7634447730384 S 525 639.6941217961819 550 644.6941217961819 S 575 638.0574432917691 600 643.0574432917691 S 625 620.4448381660156 650 625.4448381660156 S 675 590.6138840265172 700 595.6138840265172 S 725 554.5492280538863 750 559.5492280538863 S 775 519.125486220652 800 524.125486220652 S 825 490.6567551734465 850 495.6567551734465"/><path d="M -50 540 S -25 566.9414118472296 0 571.9414118472296 S 25 557.2314801847391 50 562.2314801847391 S 75 542.2902252462552 100 547.2902252462552 S 125 526.5109837593802 150 531.5109837593802 S 175 515.6623859236543 200 520.6623859236543 S 225 515.5833810730611 250 520.5833810730611 S 275 530.6792794736543 300 535.6792794736543 S 325 562.3596881623515 350 567.3596881623515 S 375 606.0900088142354 400 611.0900088142354 S 425 646.819882887649 450 651.819882887649 S 475 674.8509855133879 500 679.8509855133879 S 525 686.146099846018 550 691.146099846018 S 575 679.2194366519398 600 684.2194366519398 S 625 655.9626385610835 650 660.9626385610835 S 675 621.2303123405658 700 626.2303123405658 S 725 581.7486053356597 750 586.7486053356597 S 775 544.6897815574163 800 549.6897815574163 S 825 516.2256919398362 850 521.2256919398362"/><path d="M -50 570 S -25 584.376170448892 0 589.376170448892 S 25 572.1228167212387 50 577.1228167212387 S 75 556.6372033359074 100 561.6372033359074 S 125 542.8496851798413 150 547.8496851798413 S 175 536.5942892373384 200 541.5942892373384 S 225 543.2029767677391 250 548.2029767677391 S 275 565.9452487530668 300 570.9452487530668 S 325 604.3242755259034 350 609.3242755259034 S 375 651.5131966053806 400 656.5131966053806 S 425 693.7917824361251 450 698.7917824361251 S 475 720.7191370484379 500 725.7191370484379 S 525 728.3247134199471 550 733.3247134199471 S 575 716.4245323542588 600 721.4245323542588 S 625 688.1901867007576 650 693.1901867007576 S 675 649.4803550655108 700 654.4803550655108 S 725 607.616347619967 750 612.616347619967 S 775 569.9051252330814 800 574.9051252330814 S 825 542.2329419049889 850 547.2329419049889"/><path d="M -50 600 S -25 601.7316635401528 0 606.7316635401528 S 25 587.5498525542987 50 592.5498525542987 S 75 572.2261775050977 100 577.2261775050977 S 125 561.0583137607357 150 566.0583137607357 S 175 559.7366731119258 200 564.7366731119258 S 225 572.8608391110349 250 577.8608391110349 S 275 602.3564423491418 300 607.3564423491418 S 325 645.8382156527866 350 650.8382156527866 S 375 695.0292716619005 400 700.0292716619005 S 425 737.1432144397594 450 742.1432144397594 S 475 762.0821268870615 500 767.0821268870615 S 525 765.9514833504172 550 770.9514833504172 S 575 749.5540533432138 600 754.5540533432138 S 625 717.1855172019996 650 722.1855172019996 S 675 675.5572344189401 700 680.5572344189401 S 725 632.4158431324311 750 637.4158431324311 S 775 595.0374420363422 800 600.0374420363422 S 825 568.8913539708399 850 573.8913539708399"/><path d="M -50 630 S -25 619.5297691313027 0 624.5297691313027 S 25 604.0719738167695 50 609.0719738167695 S 75 589.5680973621737 100 594.5680973621737 S 125 581.4989734543108 150 586.4989734543108 S 175 585.2055097190405 200 590.2055097190405 S 225 604.3662770538504 250 609.3662770538504 S 275 639.4728627039606 300 644.4728627039606 S 325 686.4883191961096 350 691.4883191961096 S 375 736.2785864889297 400 741.2785864889297 S 425 776.8780674571365 450 781.8780674571365 S 475 798.9769694878274 500 803.9769694878274 S 525 799.0676094691391 550 804.0676094691391 S 575 778.7354548966604 600 783.7354548966604 S 625 743.1786042704904 650 748.1786042704904 S 675 699.7588978330296 700 704.7588978330296 S 725 656.4563874298317 750 661.4563874298317 S 775 620.3503218597663 800 625.3503218597663 S 825 596.3761208749248 850 601.3761208749248"/><path d="M -50 660 S -25 638.2625951145951 0 643.2625951145951 S 25 622.1756618236631 50 627.1756618236631 S 75 609.0568452886305 100 614.0568452886305 S 125 604.3832169436249 150 609.3832169436249 S 175 612.9618037224241 200 617.9618037224241 S 225 637.4235499578939 250 642.4235499578939 S 275 676.8558616169682 300 681.8558616169682 S 325 725.8940573583836 350 730.8940573583836 S 375 774.9812324842956 400 779.9812324842956 S 425 812.9854542402746 450 817.9854542402746 S 475 831.5887149762669 500 836.5887149762669 S 525 827.9313201618462 550 832.9313201618462 S 575 804.2870720951717 600 809.2870720951717 S 625 766.5347542689047 650 771.5347542689047 S 675 722.4591576134 700 727.4591576134 S 725 680.0694208945959 750 685.0694208945959 S 775 646.0865559584336 800 651.0865559584336 S 825 624.812363201026 850 629.812363201026"/><path d="M -50 690 S -25 658.367903237762 0 663.367903237762 S 25 642.252595087507 50 647.252595087507 S 75 630.9568834906919 100 635.9568834906919 S 125 629.7773652871015 150 634.7773652871015 S 175 642.8403027590035 200 647.8403027590035 S 225 671.6749649973876 250 676.6749649973876 S 275 714.0874648427974 300 719.0874648427974 S 325 763.7252626456379 350 768.7252626456379 S 375 810.9447667426524 400 815.9447667426524 S 425 845.5081910723966 450 850.5081910723966 S 475 860.1915131761357 500 865.1915131761357 S 525 852.9396608040272 550 857.9396608040272 S 575 826.6602667505035 600 831.6602667505035 S 625 787.7129989143825 650 792.7129989143825 S 675 744.0763795739731 700 749.0763795739731 S 725 703.5850443149886 750 708.5850443149886 S 775 672.4519569621134 800 677.4519569621134 S 825 654.2661917244133 850 659.2661917244133"/><path d="M -50 720 S -25 680.2093950339492 0 685.2093950339492 S 25 664.5860262034558 50 669.5860262034558 S 75 655.401839730432 100 660.401839730432 S 125 657.618312119991 150 662.618312119991 S 175 674.5815160100508 200 679.5815160100508 S 225 706.7344207165971 250 711.7344207165971 S 275 750.7849235286717 300 755.7849235286717 S 325 799.7166559859382 350 804.7166559859382 S 375 844.0691276643963 400 849.0691276643963 S 425 874.5691297036562 450 879.5691297036562 S 475 885.1337009448882 500 890.1337009448882 S 525 874.5798208311696 550 879.5798208311696 S 575 846.3905726153342 600 851.3905726153342 S 625 807.2265317212486 650 812.2265317212486 S 675 765.0434829880079 700 770.0434829880079 S 725 727.3108154818216 750 732.3108154818216 S 775 699.6024873365835 800 704.6024873365835 S 825 684.6070899705031 850 689.6070899705031"/><path d="M -50 750 S -25 704.0625276347379 0 709.0625276347379 S 25 689.3449424110453 50 694.3449424110453 S 75 682.4014467667358 100 687.4014467667358 S 125 687.7347320314149 150 692.7347320314149 S 175 707.86186291158 200 712.86186291158 S 225 742.2129698715961 250 747.2129698715961 S 275 786.6132635973186 300 791.6132635973186 S 325 833.6779472648094 350 838.6779472648094 S 375 874.348631054903 400 879.348631054903 S 425 900.3777923719013 450 905.3777923719013 S 475 906.8313975793351 500 911.8313975793351 S 525 893.3988442962263 550 898.3988442962263 S 575 864.0597619595625 600 869.0597619595625 S 625 825.6085773047489 650 830.6085773047489 S 675 785.7815953528353 700 790.7815953528353 S 725 751.5141312056506 750 756.5141312056506 S 775 727.6352686570409 800 732.6352686570409 S 825 714.0044818886543 850 719.0044818886543"/><path d="M -50 780 S -25 730.10593054292 0 735.10593054292 S 25 716.5848922396038 50 721.5848922396038 S 75 711.8541905412936 100 716.8541905412936 S 125 719.8701989062929 150 724.8701989062929 S 175 742.3202906907735 200 747.3202906907735 S 225 777.738894515945 250 782.738894515945 S 275 821.2960375632258 300 826.2960375632258 S 325 865.5003246990857 350 870.5003246990857 S 375 901.8710236562406 400 906.8710236562406 S 425 923.227821079909 450 928.227821079909 S 475 925.7605962542375 500 930.7605962542375 S 525 909.9819784222334 550 914.9819784222334 S 575 880.2666263178221 600 885.2666263178221 S 625 843.3844503268651 650 848.3844503268651 S 675 806.678420769574 700 811.678420769574 S 725 776.4088394286931 750 781.4088394286931 S 775 756.5836448171762 800 761.5836448171762 S 825 744.1798628987638 850 749.1798628987638"/><path d="M -50 810 S -25 756.7880154354337 0 761.7880154354337 S 25 746.2541516388044 50 751.2541516388044 S 75 743.5634923531416 100 748.5634923531416 S 125 753.7062356030801 150 758.7062356030801 S 175 777.5813180879098 200 782.5813180879098 S 225 812.9739347564401 250 817.9739347564401 S 275 854.6239884390246 300 859.6239884390246 S 325 895.1597274794175 350 900.1597274794175 S 375 926.8136561118098 400 931.8136561118098 S 425 943.4892996991402 450 948.4892996991402 S 475 942.4461917099201 500 947.4461917099201 S 525 924.9344314598861 550 929.9344314598861 S 575 895.6037684539141 600 900.6037684539141 S 625 861.0493061533707 650 866.0493061533707 S 675 828.071525372907 700 833.071525372907 S 725 802.146228493385 750 807.146228493385 S 775 785.993430568132 800 790.993430568132 S 825 775.1669780332093 850 780.1669780332093"/><path d="M -50 840 S -25 781.5261207430761 0 786.5261207430761 S 25 778.2039566831243 50 783.2039566831243 S 75 777.2558381608992 100 782.2558381608992 S 125 788.8843172485286 150 793.8843172485286 S 175 813.274895771321 200 818.274895771321 S 225 847.6264709581924 250 852.6264709581924 S 275 886.4613329767926 300 891.4613329767926 S 325 922.7170795089488 350 927.7170795089488 S 375 949.4369198872632 400 954.4369198872632 S 425 961.597728036926 450 966.597728036926 S 475 957.4484518568548 500 962.4484518568548 S 525 938.8643934188806 550 943.8643934188806 S 575 910.6384842413493 600 915.6384842413493 S 625 879.0507665374906 650 884.0507665374906 S 675 850.2363046958643 700 855.2363046958643 S 725 828.8102250655462 750 833.8102250655462 S 775 815.2945827176615 800 820.2945827176615 S 825 806.98057762016 850 811.98057762016"/><path d="M -50 870 S -25 807.1662204824474 0 812.1662204824474 S 25 809.3680431863437 50 814.3680431863437 S 75 812.5997584587815 100 817.5997584587815 S 125 825.0263703838942 150 830.0263703838942 S 175 849.0534239159093 200 854.0534239159093 S 225 881.461957512124 250 886.461957512124 S 275 916.7494585438068 300 921.7494585438068 S 325 948.315616959493 350 953.315616959493 S 375 970.0751704063381 400 975.0751704063381 S 425 978.0406312783768 450 983.0406312783768 S 475 971.3477779612244 500 976.3477779612244 S 525 952.3667267994066 550 957.3667267994066 S 575 925.8966779824241 600 930.8966779824241 S 625 897.7757088508118 650 902.7757088508118 S 675 873.3782369184011 700 878.3782369184011 S 725 856.3770065864878 750 861.3770065864878 S 775 845.3146196091302 800 850.3146196091302 S 825 839.6158498686362 850 844.6158498686362"/><path d="M -50 900 S -25 833.7769838271588 0 838.7769838271588 S 25 838.0468619773663 50 843.0468619773663 S 75 849.2248972146297 100 854.2248972146297 S 125 861.7535246568373 150 866.7535246568373 S 175 884.6061058739472 200 889.6061058739472 S 225 914.3106680149701 250 919.3106680149701 S 275 945.5079242443376 300 950.5079242443376 S 325 972.1754697907726 350 977.1754697907726 S 375 989.1254294999783 400 994.1254294999783 S 425 993.3425024692311 450 998.3425024692311 S 475 984.7285555486357 500 989.7285555486357 S 525 966.0074091655206 550 971.0074091655206 S 575 941.8493581485036 600 946.8493581485036 S 625 917.5407176066611 650 922.5407176066611 S 675 897.6290038643712 700 902.6290038643712 S 725 884.5722380484235 750 889.5722380484235 S 775 876.0837511481599 800 881.0837511481599 S 825 873.0482991799606 850 878.0482991799606"/><path d="M -50 930 S -25 861.4073800327589 0 866.4073800327589 S 25 867.7211634387373 50 872.7211634387373 S 75 880.7724445104135 100 885.7724445104135 S 125 898.7029367178078 150 903.7029367178078 S 175 919.6706824512706 200 924.6706824512706 S 225 946.0727274341338 250 951.0727274341338 S 275 972.8327497033729 300 977.8327497033729 S 325 994.5857115182977 350 999.5857115182977 S 375 1007.0342223032571 400 1012.0342223032571 S 425 1008.0486708686385 450 1013.0486708686385 S 475 998.1628032157221 500 1003.1628032157221 S 525 980.3090630796114 550 985.3090630796114 S 575 958.90160175598 600 963.90160175598 S 625 938.5858739119127 650 943.5858739119127 S 675 924.0891253262814 700 929.0891253262814 S 725 913.3993323789332 750 918.3993323789332 S 775 907.6134004151851 800 912.6134004151851 S 825 907.234074388086 850 912.234074388086"/><path d="M -50 960 S -25 890.0857523326241 0 895.0857523326241 S 25 898.3680370803303 50 903.3680370803303 S 75 913.0783600975888 100 918.0783600975888 S 125 932.4398271283983 150 937.4398271283983 S 175 954.0196630272334 200 959.0196630272334 S 225 976.7204045073213 250 981.7204045073213 S 275 998.8920627966224 300 1003.8920627966224 S 325 1015.8941526636785 350 1020.8941526636785 S 375 1024.2829553086758 400 1029.2829553086758 S 425 1022.7086479960212 450 1027.7086479960212 S 475 1012.1942413252315 500 1017.1942413252315 S 525 995.7379743800003 550 1000.7379743800003 S 575 977.6437472523496 600 982.6437472523496 S 625 963.2151587642545 650 968.2151587642545 S 675 951.0270804821348 700 956.0270804821348 S 725 942.9051006939392 750 947.9051006939392 S 775 939.8957635704761 800 944.8957635704761 S 825 942.1107409764909 850 947.1107409764909"/><path d="M -50 990 S -25 919.8193405120987 0 924.8193405120987 S 25 929.9447377035806 50 934.9447377035806 S 75 946.0579885396493 100 951.0579885396493 S 125 966.123038781672 150 971.123038781672 S 175 987.5674910266418 200 992.5674910266418 S 225 1007.6649916668991 250 1012.6649916668991 S 275 1023.9393798058595 300 1028.9393798058595 S 325 1036.4952123068726 350 1041.4952123068726 S 375 1041.3722820308121 400 1046.3722820308121 S 425 1037.8594813450586 450 1042.8594813450586 S 475 1027.348511857935 500 1032.348511857935 S 525 1015.1308815121802 550 1020.1308815121802 S 575 1001.35937150067 600 1006.35937150067 S 625 988.4439382977894 650 993.4439382977894 S 675 978.5222861029158 700 983.5222861029158 S 725 973.1184378345853 750 978.1184378345853 S 775 972.9038152899312 800 977.9038152899312 S 825 977.5984812891404 850 982.5984812891404"/><path d="M -50 1020 S -25 950.594261865132 0 955.594261865132 S 25 962.3898258641876 50 967.3898258641876 S 75 979.6132569915759 100 984.6132569915759 S 125 1000.0123107647328 150 1005.0123107647328 S 175 1020.9295072901368 200 1025.9295072901368 S 225 1039.6992405968942 250 1044.6992405968942 S 275 1054.043233618997 300 1059.043233618997 S 325 1062.402917223162 350 1067.402917223162 S 375 1064.157346738553 400 1069.157346738553 S 425 1059.6933739025912 450 1064.6933739025912 S 475 1050.318106368201 500 1055.318106368201 S 525 1038.0285305718571 550 1043.0285305718571 S 575 1025.1756267914604 600 1030.1756267914604 S 625 1014.0768266850727 650 1019.0768266850727 S 675 1006.6386505382711 700 1011.6386505382711 S 725 1004.0495596211636 750 1009.0495596211636 S 775 1006.5917606958415 800 1011.5917606958415 S 825 1013.6016970730465 850 1018.6016970730465"/><path d="M -50 1050 S -25 982.3759500428766 0 987.3759500428766 S 25 995.6247141736911 50 1000.6247141736911 S 75 1013.6350770017868 100 1018.6350770017868 S 125 1033.986650716938 150 1038.986650716938 S 175 1053.993499001506 200 1058.993499001506 S 225 1071.1071723196676 250 1076.1071723196676 S 275 1083.2947256384093 300 1088.2947256384093 S 325 1089.3330077118233 350 1094.3330077118233 S 375 1088.9738232919794 400 1093.9738232919794 S 425 1082.9550069226877 450 1087.9550069226877 S 475 1072.856780695632 500 1077.856780695632 S 525 1060.8271564807392 550 1065.8271564807392 S 575 1049.220736854365 600 1054.220736854365 S 625 1040.208820186386 650 1045.208820186386 S 675 1035.423089500046 700 1040.423089500046 S 725 1035.6896774347867 750 1040.6896774347867 S 775 1040.8959246247075 800 1045.8959246247075 S 825 1050.0109795780666 850 1055.0109795780666"/><path d="M -50 1080 S -25 1015.1100411258213 0 1020.1100411258213 S 25 1029.555583648265 50 1034.555583648265 S 75 1048.0059814704143 100 1053.0059814704143 S 125 1067.924764724709 150 1072.924764724709 S 175 1086.6550008787208 200 1091.6550008787208 S 225 1101.8193187006702 250 1106.8193187006702 S 275 1111.672131247788 300 1116.672131247788 S 325 1115.3493710011203 350 1120.3493710011203 S 375 1112.9773402039232 400 1117.9773402039232 S 425 1105.6245903348824 450 1110.6245903348824 S 475 1095.105551344092 500 1100.105551344092 S 525 1083.6680163924507 550 1088.6680163924507 S 575 1073.614860179637 600 1078.614860179637 S 625 1066.9206462848108 650 1071.9206462848108 S 675 1064.9044429270502 700 1069.9044429270502 S 725 1068.011118049029 750 1073.011118049029 S 775 1075.7360591513884 800 1080.7360591513884 S 825 1086.7054041008564 850 1091.7054041008564"/><path d="M -50 1110 S -25 1048.7236863179294 0 1053.7236863179294 S 25 1064.0756260989303 50 1069.0756260989303 S 75 1082.6029363469202 100 1087.6029363469202 S 125 1101.7079862603612 150 1106.7079862603612 S 175 1118.8198693069382 200 1123.8198693069382 S 225 1131.782537707536 250 1136.782537707536 S 275 1139.1734459235183 300 1144.1734459235183 S 325 1140.5032634129827 350 1145.5032634129827 S 375 1136.2661181269102 400 1141.2661181269102 S 425 1127.8335152467334 450 1132.8335152467334 S 475 1117.2097980975036 500 1122.2097980975036 S 525 1106.6888751950592 550 1111.6888751950592 S 575 1098.4674783543626 600 1103.4674783543626 S 625 1094.276989993511 650 1099.276989993511 S 675 1095.0928174446929 700 1100.0928174446929 S 725 1100.9678865163748 750 1105.9678865163748 S 775 1111.017040788879 800 1116.017040788879 S 825 1123.5550984821778 850 1128.5550984821778"/><path d="M -50 1140 S -25 1083.1272611953107 0 1088.1272611953107 S 25 1099.0675613377275 50 1104.0675613377275 S 75 1117.3002628116842 100 1122.3002628116842 S 125 1135.2231345131947 150 1140.2231345131947 S 175 1150.406616464762 200 1155.406616464762 S 225 1160.9614444908527 250 1165.9614444908527 S 275 1165.816676165534 300 1170.816676165534 S 325 1164.8650310453177 350 1169.8650310453177 S 375 1158.9535455204598 400 1163.9535455204598 S 425 1149.7220654734458 450 1154.7220654734458 S 475 1139.3161826605458 500 1144.3161826605458 S 525 1130.021058819524 550 1135.021058819524 S 575 1123.875042337662 600 1128.875042337662 S 625 1122.3250997643438 650 1127.3250997643438 S 675 1125.9793692494773 700 1130.9793692494773 S 725 1134.496659843068 750 1139.496659843068 S 775 1146.630919919885 800 1151.630919919885 S 825 1160.42402881629 850 1165.42402881629"/><path d="M -50 1170 S -25 1118.2164326550178 0 1123.2164326550178 S 25 1134.4063719106653 50 1139.4063719106653 S 75 1151.9726032979531 100 1156.9726032979531 S 125 1168.3652366841939 150 1173.3652366841939 S 175 1181.3484506179443 200 1186.3484506179443 S 225 1189.3394376775955 250 1194.3394376775955 S 275 1191.6396788750467 300 1196.6396788750467 S 325 1188.5227761359658 350 1193.5227761359658 S 375 1181.1658709825037 400 1186.1658709825037 S 425 1171.4364889438248 450 1176.4364889438248 S 475 1161.5695510716175 500 1166.5695510716175 S 525 1153.786667483112 550 1158.786667483112 S 575 1149.9189288628304 600 1154.9189288628304 S 625 1151.0938039312878 650 1156.0938039312878 S 675 1157.5365322312553 700 1162.5365322312553 S 725 1168.5181893877755 750 1173.5181893877755 S 775 1182.4592769898334 800 1187.4592769898334 S 825 1197.1729406489674 850 1202.1729406489674"/></g><g fill="#006CE4"><circle cx="310" cy="550" r="4" opacity="0.6">
    <animate attributeName="r" values="3;6;3" dur="3s" repeatCount="indefinite" />
    <animate attributeName="opacity" values="0.4;0.8;0.4" dur="3s" repeatCount="indefinite" />
  </circle><circle cx="310" cy="550" r="2" /><circle cx="410" cy="500" r="4" opacity="0.6">
    <animate attributeName="r" values="3;6;3" dur="3s" repeatCount="indefinite" />
    <animate attributeName="opacity" values="0.4;0.8;0.4" dur="3s" repeatCount="indefinite" />
  </circle><circle cx="410" cy="500" r="2" /><circle cx="340" cy="780" r="4" opacity="0.6">
    <animate attributeName="r" values="3;6;3" dur="3s" repeatCount="indefinite" />
    <animate attributeName="opacity" values="0.4;0.8;0.4" dur="3s" repeatCount="indefinite" />
  </circle><circle cx="340" cy="780" r="2" /><circle cx="390" cy="100" r="4" opacity="0.6">
    <animate attributeName="r" values="3;6;3" dur="3s" repeatCount="indefinite" />
    <animate attributeName="opacity" values="0.4;0.8;0.4" dur="3s" repeatCount="indefinite" />
  </circle><circle cx="390" cy="100" r="2" /><circle cx="530" cy="300" r="4" opacity="0.6">
    <animate attributeName="r" values="3;6;3" dur="3s" repeatCount="indefinite" />
    <animate attributeName="opacity" values="0.4;0.8;0.4" dur="3s" repeatCount="indefinite" />
  </circle><circle cx="530" cy="300" r="2" /><circle cx="570" cy="480" r="4" opacity="0.6">
    <animate attributeName="r" values="3;6;3" dur="3s" repeatCount="indefinite" />
    <animate attributeName="opacity" values="0.4;0.8;0.4" dur="3s" repeatCount="indefinite" />
  </circle><circle cx="570" cy="480" r="2" /><circle cx="410" cy="320" r="4" opacity="0.6">
    <animate attributeName="r" values="3;6;3" dur="3s" repeatCount="indefinite" />
    <animate attributeName="opacity" values="0.4;0.8;0.4" dur="3s" repeatCount="indefinite" />
  </circle><circle cx="410" cy="320" r="2" /><circle cx="460" cy="620" r="4" opacity="0.6">
    <animate attributeName="r" values="3;6;3" dur="3s" repeatCount="indefinite" />
    <animate attributeName="opacity" values="0.4;0.8;0.4" dur="3s" repeatCount="indefinite" />
  </circle><circle cx="460" cy="620" r="2" /></g><g stroke="#006CE4" stroke-width="0.5" stroke-opacity="0.1" stroke-dasharray="4 4"><line x1="310" y1="550" x2="410" y2="500" /><line x1="310" y1="550" x2="340" y2="780" /><line x1="310" y1="550" x2="570" y2="480" /><line x1="310" y1="550" x2="410" y2="320" /><line x1="310" y1="550" x2="460" y2="620" /><line x1="410" y1="500" x2="340" y2="780" /><line x1="410" y1="500" x2="530" y2="300" /><line x1="410" y1="500" x2="570" y2="480" /><line x1="410" y1="500" x2="410" y2="320" /><line x1="410" y1="500" x2="460" y2="620" /><line x1="340" y1="780" x2="460" y2="620" /><line x1="390" y1="100" x2="530" y2="300" /><line x1="390" y1="100" x2="410" y2="320" /><line x1="530" y1="300" x2="570" y2="480" /><line x1="530" y1="300" x2="410" y2="320" /><line x1="570" y1="480" x2="410" y2="320" /><line x1="570" y1="480" x2="460" y2="620" /></g></svg>